<svg xmlns="http://www.w3.org/2000/svg" viewBox="0 0 680 200" fill="none">
  <rect width="680" height="200" rx="16" fill="#0d1117"/>
  <defs><pattern id="g" width="40" height="40" patternUnits="userSpaceOnUse"><path d="M40 0L0 0 0 40" fill="none" stroke="#161b22" stroke-width="1"/></pattern></defs>
  <rect width="680" height="200" fill="url(#g)"/>
  <g transform="translate(40,40)">
    <rect width="120" height="120" rx="16" fill="#1a2332" stroke="#1d9bf0" stroke-width="2.5"/>
    <path d="M35 45 Q60 30 85 45 Q95 50 90 60 L75 55 Q80 65 70 70 L60 60 Q50 70 40 65 L55 55 Q35 55 35 45Z" fill="#1d9bf0" opacity="0.8"/>
    <circle cx="60" cy="85" r="12" fill="none" stroke="#1d9bf0" stroke-width="2"/>
    <path d="M55 82 L58 88 L66 80" stroke="#1d9bf0" stroke-width="2" stroke-linecap="round" fill="none"/>
    <rect x="78" y="78" width="22" height="16" rx="3" fill="none" stroke="#3fb950" stroke-width="1.5" opacity="0.5"/>
    <text x="89" y="90" font-family="monospace" font-size="8" fill="#3fb950" text-anchor="middle" opacity="0.6">AI</text>
  </g>
  <text x="195" y="72" font-family="'Segoe UI',system-ui,sans-serif" font-size="46" fill="#e6edf3" font-weight="700" letter-spacing="-1">X Auto</text>
  <text x="195" y="118" font-family="'Segoe UI',system-ui,sans-serif" font-size="46" fill="#1d9bf0" font-weight="700" letter-spacing="-1">Reply Bot</text>
  <text x="197" y="148" font-family="'Segoe UI',system-ui,sans-serif" font-size="14" fill="#7d8590">AI &#x63A8;&#x7279;&#x81EA;&#x52A8;&#x56DE;&#x590D; | Gemini | Meme &#x751F;&#x6210;</text>
  <g transform="translate(197,162)">
    <rect width="66" height="22" rx="11" fill="#1a2332" stroke="#1d9bf0" stroke-width="1"/>
    <text x="33" y="15" font-family="monospace" font-size="10" fill="#1d9bf0" text-anchor="middle">Python</text>
    <rect x="76" width="72" height="22" rx="11" fill="#1a2332" stroke="#3fb950" stroke-width="1"/>
    <text x="112" y="15" font-family="monospace" font-size="10" fill="#3fb950" text-anchor="middle">Gemini</text>
    <rect x="158" width="82" height="22" rx="11" fill="#1a2332" stroke="#f0883e" stroke-width="1"/>
    <text x="199" y="15" font-family="monospace" font-size="10" fill="#f0883e" text-anchor="middle">Twitter API</text>
  </g>
</svg>