<svg xmlns="http://www.w3.org/2000/svg" viewBox="0 0 680 180" fill="none">
  <rect width="680" height="180" rx="16" fill="#0d1117"/>
  <defs><pattern id="g" width="40" height="40" patternUnits="userSpaceOnUse"><path d="M40 0L0 0 0 40" fill="none" stroke="#161b22" stroke-width="1"/></pattern></defs>
  <rect width="680" height="180" fill="url(#g)"/>
  <g transform="translate(30,50)">
    <rect width="80" height="80" rx="14" fill="#1a2332" stroke="#1d9bf0" stroke-width="2"/>
    <path d="M22 28 Q40 18 58 28 Q64 32 62 38 L52 35 Q54 42 48 45 L40 38 Q34 45 28 42 L36 35 Q22 35 22 28Z" fill="#1d9bf0" opacity="0.7"/>
    <circle cx="40" cy="58" r="8" fill="none" stroke="#1d9bf0" stroke-width="1.5"/>
    <path d="M36 56 L38 60 L44 54" stroke="#1d9bf0" stroke-width="1.5" stroke-linecap="round" fill="none"/>
  </g>
  <text x="135" y="76" font-family="'Segoe UI',system-ui,sans-serif" font-size="42" fill="#e6edf3" font-weight="700" letter-spacing="-1">X Auto Reply Bot</text>
  <text x="137" y="104" font-family="'Segoe UI',system-ui,sans-serif" font-size="14" fill="#7d8590">AI &#x63A8;&#x7279;&#x81EA;&#x52A8;&#x56DE;&#x590D; | Gemini | Meme &#x751F;&#x6210;</text>
  <g transform="translate(137,116)">
    <rect width="66" height="22" rx="11" fill="#1a2332" stroke="#1d9bf0" stroke-width="1"/>
    <text x="33" y="15" font-family="monospace" font-size="10" fill="#1d9bf0" text-anchor="middle">Python</text>
    <rect x="76" width="72" height="22" rx="11" fill="#1a2332" stroke="#3fb950" stroke-width="1"/>
    <text x="112" y="15" font-family="monospace" font-size="10" fill="#3fb950" text-anchor="middle">Gemini</text>
    <rect x="158" width="82" height="22" rx="11" fill="#1a2332" stroke="#f0883e" stroke-width="1"/>
    <text x="199" y="15" font-family="monospace" font-size="10" fill="#f0883e" text-anchor="middle">Twitter API</text>
  </g>
</svg>